HIERARCHY
ROOT Hips
{
    OFFSET 0.000000 0.000000 0.000000
    CHANNELS 6 Xposition Yposition Zposition Zrotation Xrotation Yrotation
    JOINT Spine
    {
        OFFSET -0.000000 7.236184 0.000000
        CHANNELS 3 Zrotation Xrotation Yrotation
        JOINT Spine1
        {
            OFFSET -0.000000 20.420147 0.000000
            CHANNELS 3 Zrotation Xrotation Yrotation
            JOINT Neck
            {
                OFFSET -0.000000 20.336288 1.848754
                CHANNELS 3 Zrotation Xrotation Yrotation
                JOINT Head
                {
                    OFFSET -0.000000 12.354461 -1.764923
                    CHANNELS 3 Zrotation Xrotation Yrotation
                    End Site
                    {
                        OFFSET -0.000000 22.061537 0.000000
                    }
                }
            }
            JOINT LeftShoulder
            {
                OFFSET 3.573296 18.396038 -0.314103
                CHANNELS 3 Zrotation Xrotation Yrotation
                JOINT LeftArm
                {
                    OFFSET 10.880760 0.000000 0.000000
                    CHANNELS 3 Zrotation Xrotation Yrotation
                    JOINT LeftForeArm
                    {
                        OFFSET 27.185530 0.000000 0.000000
                        CHANNELS 3 Zrotation Xrotation Yrotation
                        JOINT LeftHand
                        {
                            OFFSET 27.825975 0.000000 0.000000
                            CHANNELS 3 Zrotation Xrotation Yrotation
                            End Site
                            {
                                OFFSET 13.236923 0.000000 0.000000
                            }
                        }
                    }
                }
            }
            JOINT RightShoulder
            {
                OFFSET -3.474926 18.396038 -0.314103
                CHANNELS 3 Zrotation Xrotation Yrotation
                JOINT RightArm
                {
                    OFFSET -10.880760 0.000000 0.000000
                    CHANNELS 3 Zrotation Xrotation Yrotation
                    JOINT RightForeArm
                    {
                        OFFSET -27.185530 0.000000 0.000000
                        CHANNELS 3 Zrotation Xrotation Yrotation
                        JOINT RightHand
                        {
                            OFFSET -27.825975 0.000000 0.000000
                            CHANNELS 3 Zrotation Xrotation Yrotation
                            End Site
                            {
                                OFFSET -13.236923 0.000000 0.000000
                            }
                        }
                    }
                }
            }
        }
    }
    JOINT LeftUpLeg
    {
        OFFSET 8.824615 0.000000 0.000000
        CHANNELS 3 Zrotation Xrotation Yrotation
        JOINT LeftLeg
        {
            OFFSET -0.000000 -35.111282 0.000000
            CHANNELS 3 Zrotation Xrotation Yrotation
            JOINT LeftFoot
            {
                OFFSET -0.000000 -42.324711 0.000000
                CHANNELS 3 Zrotation Xrotation Yrotation
                JOINT LeftToeBase
                {
                    OFFSET -0.000000 -5.735999 13.236923
                    CHANNELS 3 Zrotation Xrotation Yrotation
                    End Site
                    {
                        OFFSET -0.000000 0.000000 3.529846
                    }
                }
            }
        }
    }
    JOINT RightUpLeg
    {
        OFFSET -8.824615 0.000000 0.000000
        CHANNELS 3 Zrotation Xrotation Yrotation
        JOINT RightLeg
        {
            OFFSET -0.000000 -35.111282 0.000000
            CHANNELS 3 Zrotation Xrotation Yrotation
            JOINT RightFoot
            {
                OFFSET -0.000000 -42.324711 0.000000
                CHANNELS 3 Zrotation Xrotation Yrotation
                JOINT RightToeBase
                {
                    OFFSET -0.000000 -5.735999 13.236923
                    CHANNELS 3 Zrotation Xrotation Yrotation
                    End Site
                    {
                        OFFSET -0.000000 0.000000 3.529846
                    }
                }
            }
        }
    }
}
MOTION
Frames:    7
Frame Time:    0.008333
-5.902220    81.395790    99.494934    -0.681453    -7.050322    -177.390244    -1.798683    -15.213542    0.217019    0.066388    4.855463    0.454531    3.288966    4.202244    -1.653825    2.240679    1.662533    -1.798942    1.825346    18.088903    -3.944045    -47.857121    47.578644    -37.089722    -1.921346    -4.636267    -16.925171    17.075035    -4.342079    3.868636    5.828509    18.862558    -5.324622    42.301281    49.823219    36.054913    -1.326696    -7.865143    17.611759    -15.759802    -7.038035    -4.539606    1.814720    -5.709835    -1.570992    -1.495785    11.163244    -5.266167    -0.170620    -10.092158    -4.885485    -0.356106    -1.462372    0.395784    -3.206292    -2.400687    2.690863    3.275336    6.084047    6.295126    -1.919007    -7.300170    -14.037748    0.121677    -1.026080    -0.131789    
-5.903219    81.382462    99.448738    -0.678895    -7.011843    -177.385315    -1.806903    -15.220624    0.210100    0.089747    4.888711    0.447748    3.300123    4.216058    -1.650166    2.206122    1.698828    -1.801075    1.823062    18.113836    -3.938560    -48.155220    47.434711    -36.854095    -1.889146    -4.795124    -16.897779    16.989218    -4.496126    3.886034    5.831911    18.852129    -5.342801    42.399235    49.809441    35.934769    -1.341492    -7.925695    17.666449    -15.714648    -7.093554    -4.569078    1.793050    -5.734924    -1.551492    -1.449276    11.339504    -5.307711    -0.181621    -10.217692    -4.874030    -0.371080    -1.511190    0.412464    -3.196092    -2.397791    2.701514    3.275940    6.217967    6.268869    -1.927146    -7.409874    -14.029476    0.126702    -1.051932    -0.137236    
-5.904179    81.368759    99.401123    -0.676139    -6.972216    -177.380295    -1.814717    -15.228786    0.201935    0.112882    4.924757    0.439855    3.311139    4.228884    -1.645218    2.171110    1.736799    -1.801972    1.819902    18.138464    -3.929158    -48.460110    47.285328    -36.613415    -1.856754    -4.958493    -16.869022    16.903639    -4.654609    3.903936    5.834533    18.840904    -5.358864    42.500957    49.793896    35.811096    -1.355630    -7.989091    17.721996    -15.667124    -7.151999    -4.599358    1.771097    -5.760109    -1.531580    -1.401527    11.519853    -5.350294    -0.192949    -10.346237    -4.862395    -0.386261    -1.560666    0.429377    -3.185585    -2.394098    2.712398    3.276833    6.354629    6.241902    -1.935514    -7.522152    -14.020901    0.131785    -1.078248    -0.142747    
-5.905016    81.355110    99.353279    -0.673210    -6.932645    -177.375397    -1.822521    -15.237617    0.193873    0.135994    4.961143    0.431836    3.322100    4.241354    -1.640021    2.136420    1.775450    -1.802601    1.816184    18.162914    -3.918484    -48.764427    47.133633    -36.373180    -1.825730    -5.122175    -16.838421    16.822746    -4.813492    3.921437    5.837319    18.830137    -5.375098    42.602737    49.777100    35.687790    -1.368079    -8.055082    17.776577    -15.617794    -7.213379    -4.629774    1.749877    -5.784216    -1.512132    -1.354392    11.698483    -5.392846    -0.203978    -10.473743    -4.850363    -0.401020    -1.608908    0.445824    -3.174997    -2.389230    2.722788    3.277845    6.489277    6.214432    -1.943303    -7.633424    -14.011153    0.136744    -1.104162    -0.148124    
-5.905689    81.341148    99.303856    -0.669915    -6.892110    -177.370544    -1.830772    -15.247112    0.185971    0.160106    4.997743    0.424221    3.333652    4.255038    -1.634884    2.100798    1.815242    -1.803375    1.811697    18.188471    -3.907813    -49.077179    46.974438    -36.125980    -1.795755    -5.290473    -16.803802    16.746521    -4.976985    3.939004    5.840854    18.819923    -5.392353    42.708359    49.757626    35.560104    -1.378467    -8.126347    17.831217    -15.564568    -7.280401    -4.661245    1.729187    -5.807192    -1.492803    -1.306975    11.878872    -5.436420    -0.215010    -10.602755    -4.837445    -0.415652    -1.656108    0.462131    -3.164020    -2.382404    2.732853    3.279109    6.624346    6.185679    -1.951023    -7.745977    -13.999786    0.141658    -1.129978    -0.153452    
-5.906139    81.326904    99.252754    -0.666184    -6.850733    -177.365799    -1.839164    -15.257840    0.178040    0.184719    5.035515    0.416306    3.345632    4.268876    -1.629152    2.064584    1.856597    -1.803647    1.805947    18.214291    -3.894618    -49.398441    46.807659    -35.871792    -1.767607    -5.463439    -16.764095    16.677206    -5.145139    3.956462    5.844957    18.810005    -5.409967    42.817989    49.734905    35.428562    -1.385980    -8.203908    17.885139    -15.506959    -7.354271    -4.693863    1.709378    -5.828558    -1.474042    -1.259756    12.060160    -5.480596    -0.225879    -10.732730    -4.823598    -0.429965    -1.702061    0.478085    -3.152613    -2.373106    2.742357    3.280622    6.758851    6.155241    -1.958398    -7.859316    -13.986094    0.146345    -1.155691    -0.158536    
-5.906305    81.312355    99.199661    -0.661881    -6.808392    -177.361160    -1.848047    -15.269738    0.170268    0.210521    5.073639    0.408799    3.358111    4.283535    -1.623220    2.027598    1.899659    -1.803820    1.798870    18.241323    -3.880144    -49.729774    46.631287    -35.609245    -1.741715    -5.641524    -16.717815    16.616299    -5.318357    3.974137    5.849880    18.801250    -5.428978    42.931976    49.707981    35.292713    -1.389944    -8.289056    17.938229    -15.444205    -7.436280    -4.728139    1.690742    -5.847698    -1.455783    -1.212833    12.241865    -5.525522    -0.236748    -10.863423    -4.808738    -0.443824    -1.745632    0.493535    -3.140708    -2.360537    2.751263    3.282556    6.891769    6.122729    -1.965404    -7.972961    -13.969583    0.150814    -1.180956    -0.163382    
